<svg xmlns="http://www.w3.org/2000/svg" viewBox="0 0 1672 941" role="img" aria-labelledby="title desc">
  <title id="title">Industrial chemistry R&amp;D laboratory</title>
  <desc id="desc">A technical industrial chemistry laboratory with pilot reactors, sample vessels and formulation panels.</desc>
  <defs>
    <linearGradient id="bg" x1="0" x2="1" y1="0" y2="1">
      <stop offset="0" stop-color="#081016"/>
      <stop offset="0.48" stop-color="#14232b"/>
      <stop offset="1" stop-color="#d8e2e5"/>
    </linearGradient>
    <linearGradient id="glass" x1="0" x2="1">
      <stop offset="0" stop-color="#e9f5f7" stop-opacity="0.76"/>
      <stop offset="1" stop-color="#83a7ad" stop-opacity="0.25"/>
    </linearGradient>
    <linearGradient id="steel" x1="0" x2="1">
      <stop offset="0" stop-color="#cbd5d8"/>
      <stop offset="0.5" stop-color="#eef3f4"/>
      <stop offset="1" stop-color="#7f9198"/>
    </linearGradient>
    <radialGradient id="amber" cx="50%" cy="45%" r="60%">
      <stop offset="0" stop-color="#f0b55a"/>
      <stop offset="1" stop-color="#8f5d23"/>
    </radialGradient>
    <filter id="soft" x="-20%" y="-20%" width="140%" height="140%">
      <feGaussianBlur stdDeviation="14"/>
    </filter>
  </defs>
  <rect width="1672" height="941" fill="url(#bg)"/>
  <path d="M0 0h790v941H0z" fill="#050a0f" opacity=".62"/>
  <g opacity=".16" stroke="#d7e6e8" stroke-width="1">
    <path d="M780 0v941M890 0v941M1000 0v941M1110 0v941M1220 0v941M1330 0v941M1440 0v941M1550 0v941"/>
    <path d="M690 120h930M640 260h1010M620 410h990M700 580h840M760 750h800"/>
  </g>
  <g transform="translate(890 128)">
    <rect x="0" y="0" width="610" height="468" fill="url(#glass)" opacity=".52"/>
    <path d="M0 118h610M0 234h610M0 350h610M152 0v468M305 0v468M458 0v468" stroke="#e7f1f2" stroke-opacity=".38" stroke-width="3"/>
    <rect x="22" y="24" width="566" height="420" fill="none" stroke="#cfe0e3" stroke-opacity=".44" stroke-width="2"/>
  </g>
  <g transform="translate(1045 268)">
    <rect x="32" y="78" width="142" height="438" rx="18" fill="url(#steel)"/>
    <rect x="52" y="36" width="102" height="74" rx="12" fill="#edf4f5"/>
    <rect x="68" y="0" width="70" height="50" rx="8" fill="#81959c"/>
    <path d="M103 516v110" stroke="#d3dddf" stroke-width="22" stroke-linecap="round"/>
    <path d="M20 268h166" stroke="#53646b" stroke-width="18"/>
    <circle cx="102" cy="268" r="38" fill="#18333a" stroke="#e0ecee" stroke-width="8"/>
    <path d="M174 168h160c54 0 98 44 98 98v158" fill="none" stroke="#d9e2e4" stroke-width="18"/>
    <path d="M448 424v-84h150" fill="none" stroke="#9db0b6" stroke-width="16"/>
  </g>
  <g transform="translate(1244 516)">
    <rect x="0" y="0" width="300" height="212" rx="10" fill="#16242c" stroke="#a6b8bd" stroke-opacity=".55" stroke-width="3"/>
    <rect x="26" y="34" width="248" height="20" fill="#2c5960"/>
    <rect x="26" y="78" width="116" height="18" fill="#d5e0e2" opacity=".76"/>
    <rect x="26" y="116" width="202" height="18" fill="#d5e0e2" opacity=".52"/>
    <rect x="26" y="154" width="160" height="18" fill="#b98735" opacity=".8"/>
  </g>
  <g transform="translate(720 628)">
    <path d="M0 118h854v140H0z" fill="#d8e0e2"/>
    <path d="M0 118h854v26H0z" fill="#fbfcfc"/>
    <path d="M40 258h760" stroke="#66777e" stroke-width="12"/>
    <g transform="translate(62 22)">
      <rect x="0" y="70" width="86" height="92" rx="8" fill="#eaf1f2"/>
      <rect x="16" y="0" width="54" height="76" rx="9" fill="#cad7da"/>
      <rect x="12" y="116" width="62" height="34" fill="url(#amber)"/>
      <path d="M16 78h54" stroke="#53666e" stroke-width="5"/>
    </g>
    <g transform="translate(206 12)">
      <rect x="0" y="52" width="104" height="116" rx="8" fill="#eef5f6"/>
      <rect x="20" y="0" width="64" height="58" rx="8" fill="#b8c8cc"/>
      <path d="M14 104h76M14 132h76" stroke="#234a50" stroke-width="6"/>
    </g>
    <g transform="translate(388 30)">
      <path d="M24 0h72l24 132c4 23-14 44-38 44H38c-24 0-42-21-38-44z" fill="#e8f2f3"/>
      <path d="M24 110h96l4 28c4 21-12 38-34 38H54c-22 0-38-17-34-38z" fill="#116b6e" opacity=".86"/>
      <path d="M36 28h48" stroke="#8da1a7" stroke-width="8"/>
    </g>
    <g transform="translate(574 40)">
      <rect x="0" y="54" width="154" height="108" rx="7" fill="#182830"/>
      <rect x="20" y="78" width="114" height="16" fill="#d7e2e5"/>
      <rect x="20" y="112" width="76" height="14" fill="#b98735"/>
      <rect x="20" y="142" width="98" height="12" fill="#79939a"/>
    </g>
  </g>
  <g transform="translate(840 470)" opacity=".96">
    <circle cx="78" cy="42" r="34" fill="#26363d"/>
    <path d="M48 82h62c42 0 76 34 76 76v112H0V130c0-27 21-48 48-48z" fill="#e9f0f1"/>
    <path d="M86 82l42 188H56z" fill="#116b6e"/>
    <path d="M0 160h186" stroke="#c8d5d8" stroke-width="18"/>
  </g>
  <g transform="translate(930 352)" opacity=".9">
    <path d="M0 72h210" stroke="#e9f0f1" stroke-width="20" stroke-linecap="round"/>
    <path d="M176 72h128" stroke="#b98735" stroke-width="14" stroke-linecap="round"/>
    <circle cx="24" cy="72" r="26" fill="#26363d"/>
  </g>
  <g opacity=".28" filter="url(#soft)">
    <ellipse cx="1292" cy="744" rx="290" ry="60" fill="#081016"/>
    <ellipse cx="1060" cy="652" rx="180" ry="38" fill="#116b6e"/>
  </g>
  <g transform="translate(90 118)" opacity=".9">
    <path d="M0 0h420v2H0z" fill="#b98735"/>
    <path d="M0 74h280v2H0z" fill="#d5e0e2" opacity=".35"/>
    <path d="M0 150h350v2H0z" fill="#d5e0e2" opacity=".22"/>
  </g>
</svg>
